<svg width="21" height="21" viewBox="0 0 21 21" fill="none" xmlns="http://www.w3.org/2000/svg">
<path d="M11.2147 5.21478H9.21472V9.21478H5.21472V11.2148H9.21472V15.2148H11.2147V11.2148H15.2147V9.21478H11.2147V5.21478ZM10.2147 0.214783C4.69472 0.214783 0.214722 4.69478 0.214722 10.2148C0.214722 15.7348 4.69472 20.2148 10.2147 20.2148C15.7347 20.2148 20.2147 15.7348 20.2147 10.2148C20.2147 4.69478 15.7347 0.214783 10.2147 0.214783ZM10.2147 18.2148C5.80472 18.2148 2.21472 14.6248 2.21472 10.2148C2.21472 5.80478 5.80472 2.21478 10.2147 2.21478C14.6247 2.21478 18.2147 5.80478 18.2147 10.2148C18.2147 14.6248 14.6247 18.2148 10.2147 18.2148Z" fill="white"/>
</svg>
