<svg width="20" height="20" viewBox="0 0 20 20" fill="none" xmlns="http://www.w3.org/2000/svg">
<path d="M3.50006 13.9725L3.49772 14.1276L3.58364 14.2569C4.96236 16.3303 7.32556 17.7 10 17.7C12.6744 17.7 15.0376 16.3303 16.4164 14.2569L16.5023 14.1276L16.4999 13.9725C16.4897 13.2949 16.141 12.7335 15.6712 12.2941C15.2035 11.8565 14.582 11.5058 13.9278 11.2324C12.6213 10.6865 11.0634 10.4 10 10.4C8.93174 10.4 7.37379 10.6865 6.06832 11.2325C5.41456 11.5059 4.79399 11.8567 4.32701 12.2944C3.85791 12.734 3.51026 13.2954 3.50006 13.9725ZM0.5 10C0.5 4.75614 4.75614 0.5 10 0.5C15.2439 0.5 19.5 4.75614 19.5 10C19.5 15.2439 15.2439 19.5 10 19.5C4.75614 19.5 0.5 15.2439 0.5 10ZM13.5 6C13.5 4.06386 11.9361 2.5 10 2.5C8.06386 2.5 6.5 4.06386 6.5 6C6.5 7.93614 8.06386 9.5 10 9.5C11.9361 9.5 13.5 7.93614 13.5 6Z" fill="black" stroke="black"/>
</svg>
